<svg aria-hidden="true" style="position: absolute; width: 0; height: 0; overflow: hidden;" version="1.1" xmlns="http://www.w3.org/2000/svg" xmlns:xlink="http://www.w3.org/1999/xlink">
<defs>
<symbol id="icon-ep_left" viewBox="0 0 37 32">
<path d="M3.556 21.333v-17.778c0-1.964 1.592-3.556 3.556-3.556h23.111c1.964 0 3.556 1.592 3.556 3.556v17.778c0 1.964-1.592 3.556-3.556 3.556h-23.111c-1.964 0-3.556-1.592-3.556-3.556z"></path>
<path stroke-linejoin="miter" stroke-linecap="butt" stroke-miterlimit="4" stroke-width="0.8889" d="M12.231 12.686v0c-0.033-0.031-0.059-0.069-0.076-0.11v0c-0.018-0.041-0.027-0.086-0.027-0.131s0.009-0.090 0.027-0.131v0c0.018-0.041 0.044-0.079 0.076-0.11v-0l8.669-8.26c0.062-0.059 0.144-0.092 0.23-0.092 0.084 0 0.165 0.032 0.227 0.089l0.005 0.005-0 0 0.008 0.008c0.027 0.025 0.048 0.056 0.062 0.090s0.022 0.070 0.022 0.107-0.007 0.073-0.022 0.107c-0.015 0.034-0.036 0.064-0.062 0.090l-0 0-8.501 8.096 8.502 8.1c0.027 0.025 0.048 0.056 0.062 0.090s0.022 0.070 0.022 0.107c0 0.037-0.007 0.073-0.022 0.107s-0.036 0.064-0.062 0.090l-0-0-0.008 0.008-0.005 0.005c-0.062 0.057-0.143 0.089-0.227 0.089-0.086 0-0.168-0.033-0.23-0.092l-0-0-8.669-8.26z"></path>
</symbol>
<symbol id="icon-v-point" viewBox="0 0 24 32">
<path d="M11.586 0.368c2.231 0 4.138 0.779 5.72 2.336s2.372 3.451 2.372 5.683c0 1.275-0.276 2.477-0.828 3.605s-1.33 2.084-2.336 2.869h-1.251v-1.839c0.711-0.564 1.257-1.251 1.637-2.060s0.57-1.667 0.57-2.575c0-1.618-0.576-2.992-1.729-4.12s-2.538-1.692-4.156-1.692c-1.618 0-3.004 0.564-4.156 1.692s-1.729 2.501-1.729 4.12c0 0.907 0.19 1.766 0.57 2.575s0.926 1.496 1.637 2.060v2.648c-1.373-0.711-2.452-1.717-3.237-3.016s-1.177-2.722-1.177-4.267c0-2.231 0.791-4.126 2.372-5.683s3.488-2.336 5.72-2.336zM10.189 31.264c-0.417 0-0.809-0.080-1.177-0.239s-0.687-0.374-0.956-0.644l-7.577-7.577 2.060-2.133c0.343-0.343 0.73-0.607 1.159-0.791s0.877-0.215 1.343-0.092l2.869 0.662v-11.991c0-1.030 0.356-1.9 1.067-2.611s1.582-1.067 2.611-1.067c1.030 0 1.9 0.356 2.612 1.067s1.067 1.582 1.067 2.611v6.326h0.956c0.123 0 0.233 0.024 0.331 0.073s0.208 0.098 0.331 0.147l5.444 2.648c0.589 0.27 1.024 0.705 1.306 1.306s0.362 1.22 0.239 1.857l-1.324 8.018c-0.123 0.711-0.466 1.293-1.030 1.747s-1.202 0.68-1.913 0.68h-9.416zM9.894 29.057h10.336l1.582-9.159-6.731-3.347h-2.023v-8.092c0-0.441-0.135-0.797-0.405-1.067s-0.625-0.405-1.067-0.405-0.797 0.135-1.067 0.405c-0.27 0.27-0.405 0.625-0.405 1.067v14.676l-5.664-1.214-0.846 0.846 6.29 6.29zM20.23 29.057v0z"></path>
</symbol>
<symbol id="icon-chevron-go" viewBox="0 0 34 32">
<path d="M21.931 15.709c0.353 0.353 0.353 0.924 0 1.277l-9.206 9.206c-0.353 0.353-0.924 0.353-1.277 0l-0.426-0.426c-0.353-0.353-0.353-0.924 0-1.277l8.142-8.142-8.142-8.142c-0.353-0.353-0.353-0.924 0-1.277l0.426-0.426c0.353-0.353 0.924-0.353 1.277 0l9.206 9.206z"></path>
</symbol>
<symbol id="icon-ep_right" viewBox="0 0 37 32">
<path  d="M33.778 3.556v17.778c0 1.964-1.592 3.556-3.556 3.556h-23.111c-1.964 0-3.556-1.592-3.556-3.556v-17.778c0-1.964 1.592-3.556 3.556-3.556h23.111c1.964 0 3.556 1.592 3.556 3.556z"></path>
<path   stroke="#2c2c2c" stroke-linejoin="miter" stroke-linecap="butt" stroke-miterlimit="4" stroke-width="0.8889" d="M25.102 12.203v0c0.033 0.031 0.059 0.069 0.076 0.11v0c0.018 0.041 0.027 0.086 0.027 0.131s-0.009 0.090-0.027 0.131v0c-0.018 0.041-0.044 0.079-0.076 0.11v0l-8.669 8.26c-0.062 0.059-0.144 0.092-0.23 0.092-0.084 0-0.165-0.032-0.227-0.089l-0.005-0.005 0-0-0.008-0.008c-0.027-0.025-0.048-0.056-0.062-0.090s-0.022-0.070-0.022-0.107 0.007-0.073 0.022-0.107c0.015-0.034 0.036-0.064 0.062-0.090l0-0 8.501-8.096-8.502-8.1c-0.027-0.025-0.048-0.056-0.062-0.090s-0.022-0.070-0.022-0.107 0.007-0.073 0.022-0.107c0.015-0.034 0.036-0.064 0.062-0.090l0 0 0.008-0.008 0.005-0.005c0.062-0.057 0.143-0.089 0.227-0.089 0.086 0 0.168 0.033 0.23 0.092l0 0 8.669 8.26z"></path>
</symbol>
<symbol id="icon-close-icon" viewBox="0 0 30 32">
<path d="M16.219 14.826l4.928-4.924c0.166-0.194 0.253-0.443 0.243-0.698s-0.116-0.497-0.296-0.677c-0.181-0.18-0.423-0.286-0.678-0.296s-0.505 0.077-0.699 0.243l-4.928 4.873-4.958-4.954c-0.194-0.166-0.443-0.253-0.699-0.243s-0.497 0.116-0.678 0.296c-0.181 0.18-0.286 0.422-0.296 0.677s0.077 0.504 0.243 0.698l4.948 5.005-4.846 4.782c-0.106 0.091-0.192 0.203-0.253 0.328s-0.095 0.263-0.1 0.402 0.018 0.279 0.069 0.409c0.051 0.13 0.128 0.248 0.227 0.347s0.217 0.176 0.347 0.227c0.13 0.051 0.269 0.074 0.409 0.069s0.277-0.040 0.402-0.1c0.126-0.061 0.238-0.147 0.329-0.253l4.836-4.833 4.806 4.802c0.194 0.166 0.443 0.253 0.699 0.243s0.497-0.116 0.678-0.296c0.181-0.18 0.286-0.422 0.296-0.677s-0.077-0.504-0.243-0.698l-4.786-4.751z"></path>
</symbol>
<symbol id="icon-burger_menu" viewBox="0 0 32 32">
<path d="M2.666 8c0-0.354 0.14-0.693 0.391-0.943s0.589-0.391 0.943-0.391h24c0.354 0 0.693 0.14 0.943 0.391s0.39 0.589 0.39 0.943c0 0.354-0.14 0.693-0.39 0.943s-0.589 0.391-0.943 0.391h-24c-0.354 0-0.693-0.14-0.943-0.391s-0.391-0.589-0.391-0.943zM2.666 16.043c0-0.354 0.14-0.693 0.391-0.943s0.589-0.39 0.943-0.39h24c0.354 0 0.693 0.14 0.943 0.39s0.39 0.589 0.39 0.943c0 0.354-0.14 0.693-0.39 0.943s-0.589 0.39-0.943 0.39h-24c-0.354 0-0.693-0.14-0.943-0.39s-0.391-0.589-0.391-0.943zM4 22.752c-0.354 0-0.693 0.141-0.943 0.39s-0.391 0.589-0.391 0.943 0.14 0.693 0.391 0.943c0.25 0.25 0.589 0.39 0.943 0.39h24c0.354 0 0.693-0.14 0.943-0.39s0.39-0.589 0.39-0.943c0-0.354-0.14-0.693-0.39-0.943s-0.589-0.39-0.943-0.39h-24z"></path>
</symbol>
<symbol id="icon-rocket_launch_FILL0_wght400_GRAD0_opsz48" viewBox="0 0 32 32">
<path d="M7.233 13.633l3.533 1.5c0.4-0.8 0.828-1.589 1.283-2.367s0.939-1.522 1.45-2.233l-2.633-0.533-3.633 3.633zM12.367 16.333l4.433 4.433c1.267-0.578 2.456-1.233 3.567-1.967s2.011-1.444 2.7-2.133c1.8-1.8 3.122-3.644 3.967-5.533s1.3-4.022 1.367-6.4c-2.378 0.067-4.511 0.522-6.4 1.367s-3.733 2.167-5.533 3.967c-0.689 0.689-1.4 1.589-2.133 2.7s-1.389 2.3-1.967 3.567zM20 13.133c-0.444-0.444-0.667-0.995-0.667-1.65s0.222-1.206 0.667-1.65 0.994-0.667 1.65-0.667c0.656 0 1.206 0.222 1.65 0.667s0.667 0.994 0.667 1.65c0 0.655-0.222 1.206-0.667 1.65s-0.994 0.667-1.65 0.667-1.206-0.222-1.65-0.667zM19.5 25.9l3.633-3.633-0.533-2.633c-0.711 0.511-1.456 0.994-2.233 1.45s-1.567 0.883-2.367 1.283l1.5 3.533zM30.367 2.767c0.2 3.022-0.178 5.778-1.133 8.267s-2.533 4.833-4.733 7.033l-0.133 0.133 0.733 3.667c0.067 0.333 0.050 0.656-0.050 0.967s-0.272 0.589-0.517 0.833l-5.7 5.733-2.833-6.6-5.667-5.667-6.6-2.833 5.733-5.7c0.244-0.244 0.522-0.417 0.833-0.517s0.633-0.117 0.967-0.050l3.667 0.733c0.022-0.022 0.044-0.039 0.067-0.050s0.044-0.028 0.067-0.050c2.2-2.2 4.544-3.783 7.033-4.75s5.244-1.35 8.267-1.15zM5.967 21.167c0.778-0.778 1.728-1.172 2.85-1.183s2.072 0.372 2.85 1.15c0.778 0.778 1.161 1.728 1.15 2.85s-0.406 2.072-1.183 2.85c-0.578 0.578-1.472 1.055-2.683 1.433s-3.028 0.733-5.45 1.067c0.333-2.422 0.683-4.244 1.050-5.467s0.839-2.122 1.417-2.7zM7.367 22.6c-0.311 0.333-0.589 0.856-0.833 1.567s-0.456 1.622-0.633 2.733c1.111-0.178 2.022-0.389 2.733-0.633s1.233-0.522 1.567-0.833c0.422-0.378 0.639-0.85 0.65-1.417s-0.183-1.061-0.583-1.483c-0.422-0.4-0.917-0.595-1.483-0.583s-1.039 0.228-1.417 0.65z"></path>
</symbol>
<symbol id="icon-vector-star" viewBox="0 0 30 32">
<path d="M13.707 2.191c0.519-1.254 2.289-1.254 2.808 0l3.066 7.403c0.219 0.529 0.714 0.89 1.283 0.936l7.957 0.641c1.348 0.109 1.895 1.798 0.868 2.682l-6.063 5.216c-0.433 0.373-0.622 0.957-0.49 1.514l1.852 7.799c0.314 1.321-1.117 2.366-2.272 1.658l-6.813-4.179c-0.487-0.299-1.099-0.299-1.585 0l-6.813 4.179c-1.154 0.708-2.586-0.336-2.272-1.658l1.852-7.799c0.132-0.557-0.057-1.142-0.49-1.514l-6.063-5.216c-1.027-0.884-0.481-2.574 0.868-2.682l7.958-0.641c0.568-0.046 1.064-0.407 1.283-0.936l3.066-7.403z"></path>
</symbol>
</defs>
</svg>
